PathFileType	4	(X/Y/Z)	Walk3.trc
DataRate	CameraRate	NumFrames	NumMarkers	Units	OrigDataRate	OrigDataStartFrame	OrigNumFrames
200.000000	200.000000	9	61	mm	200.000000	610	737
Frame#	Times		LTH3		RCAR		LBHD		RTH2		LWRU		LUA1		LElbow		RTH3		LFA1		LCAR		C7		RPSI		LElbowM		RTB3		RBHD		RASI		RTB1		RTB2		RToe		LTH4		RFA1		RMT5		RWRU		LWRR		LTH2		RLFC		RElbow		RTB4		RMT1		RMMAL		T10		RBack		RLMAL		STRN		LASI		LPSI		CLAV		RCAL		RUA1		RElbowM		LLFC		LFHD		LACR1		LTB3		RFHD		LTB4		LCAL		RACR1		LTB2		LMMAL		RTH1		LTB1		LMT5		LLMAL		RTH4		LMFC		RWRR		RMFC		LTH1		LToe		LMT1
			X1	Y1	Z1	X2	Y2	Z2	X3	Y3	Z3	X4	Y4	Z4	X5	Y5	Z5	X6	Y6	Z6	X7	Y7	Z7	X8	Y8	Z8	X9	Y9	Z9	X10	Y10	Z10	X11	Y11	Z11	X12	Y12	Z12	X13	Y13	Z13	X14	Y14	Z14	X15	Y15	Z15	X16	Y16	Z16	X17	Y17	Z17	X18	Y18	Z18	X19	Y19	Z19	X20	Y20	Z20	X21	Y21	Z21	X22	Y22	Z22	X23	Y23	Z23	X24	Y24	Z24	X25	Y25	Z25	X26	Y26	Z26	X27	Y27	Z27	X28	Y28	Z28	X29	Y29	Z29	X30	Y30	Z30	X31	Y31	Z31	X32	Y32	Z32	X33	Y33	Z33	X34	Y34	Z34	X35	Y35	Z35	X36	Y36	Z36	X37	Y37	Z37	X38	Y38	Z38	X39	Y39	Z39	X40	Y40	Z40	X41	Y41	Z41	X42	Y42	Z42	X43	Y43	Z43	X44	Y44	Z44	X45	Y45	Z45	X46	Y46	Z46	X47	Y47	Z47	X48	Y48	Z48	X49	Y49	Z49	X50	Y50	Z50	X51	Y51	Z51	X52	Y52	Z52	X53	Y53	Z53	X54	Y54	Z54	X55	Y55	Z55	X56	Y56	Z56	X57	Y57	Z57	X58	Y58	Z58	X59	Y59	Z59	X60	Y60	Z60	X61	Y61	Z61

610	3.05	515.54	622.41	-144.6	745.1	924.74	246.43	410.4	1641.8	-49.66	447.81	690.16	176.25	291.8	860.51	-215.52	344.69	1294.2	-228.77	285.82	1146.3	-236.14	355.89	613.93	195.05	279.79	994.11	-235.03	353.69	807.69	-226.85	378.71	1511.7	26.709	262.16	1025.1	84.15	260.44	1148.3	-162.4	278.88	187.36	93.204	416.44	1643.4	92.172	477.06	1035.2	179.26	338.11	363.51	113.02	282.77	273.02	167.47	401.25	30.88	119.46	487.52	710.44	-156.57	593.51	1015.1	302.32	292.98	25.441	170.32	679.42	915.04	264.54	367.72	864.53	-179.9	548.94	733.9	-126.47	316.69	498.11	186.73	500.74	1140.2	317.32	309.39	275.04	102.02	346.86	38.021	93.787	243.83	94.221	51.22	262.61	1292.9	36.383	311.06	1426.7	168.59	205	74.692	129.59	539.61	1240.8	13.763	462.49	1031.7	-109.89	255.64	1018	6.4503	504.78	1415.7	17.237	148.68	41.454	77.868	484.02	1296.2	274.83	454.6	1113.7	253.45	535.82	526.63	-134.02	592.21	1671.1	-12.996	431.11	1461.3	-146.7	641.42	220.88	-73.102	594.78	1670.8	63.824	628.81	316.34	-68.62	581.41	28.19	-69.49	465.63	1459.6	176.12	600.76	315.62	-139.63	649.73	109.99	-37.287	404.81	797.22	216.86	616.68	405.56	-66.46	736.13	50.243	-144.33	624.6	83.052	-117.57	383.11	703.5	208.47	546.72	528.13	-2.6303	704.59	954.62	201.81	324.28	513.61	54.677	460.84	799.77	-162.73	817.2	89.369	-83.453	774.95	73.542	-64.111
611	3.055	519.23	620.96	-144.82	751.98	926.48	244.97	415.45	1640.9	-50.125	451.35	689.39	176.12	295.24	859.8	-215.48	349.61	1293.4	-229.11	290.51	1145.6	-236.3	358.96	613.67	194.73	283.85	993.45	-235.09	356.88	806.67	-226.62	383.76	1511	26.248	267.18	1024.4	83.632	265.03	1147.8	-162.59	279.61	187.37	93.063	421.48	1642.6	91.709	481.93	1034.4	179.03	339.82	363.22	112.82	283.96	273.05	167.33	401.23	30.865	119.48	491.53	709.11	-156.8	599.7	1015.2	301.48	292.93	25.416	170.25	686.41	915.99	263.01	371.15	863.52	-179.74	552.95	732.31	-126.45	319.1	497.98	186.51	506.01	1139.6	317.2	310.61	274.88	101.84	346.85	37.922	93.771	244.07	94.366	51.184	267.54	1292.2	35.921	316.15	1426	168.18	205.13	75.091	129.56	544.63	1240	13.397	467.54	1030.9	-110.27	260.69	1017.2	5.9594	509.86	1414.9	16.806	148.68	42.015	77.834	489.15	1295.6	274.5	459.95	1112.9	253.31	540.23	525.64	-133.62	597.24	1670.3	-13.459	436.25	1460.4	-147.15	650.41	221.33	-72.426	599.78	1670.1	63.369	636.37	316.65	-67.951	593.07	27.731	-69.168	470.73	1458.9	175.64	608.5	315.51	-139.02	660.18	110.5	-36.573	408.82	796.63	216.47	622.91	405.72	-65.801	748.09	51.815	-143.23	635.85	83.219	-117	386.63	703.08	208.15	550.32	526.99	-1.7831	711.2	956.21	200.53	326.9	513.46	54.382	465.21	798.53	-162.98	828.42	91.904	-81.828	786.19	75.711	-62.597
612	3.06	523.04	619.52	-145.04	758.72	928.13	243.55	420.51	1640.1	-50.622	454.96	688.61	175.99	298.79	859.05	-215.52	354.6	1292.5	-229.49	295.3	1144.9	-236.52	362.13	613.4	194.4	288.03	992.74	-235.21	360.18	805.61	-226.42	388.8	1510.2	25.754	272.23	1023.6	83.074	269.7	1147.2	-162.84	280.4	187.38	92.931	426.53	1641.8	91.214	486.82	1033.7	178.81	341.61	362.92	112.61	285.21	273.09	167.19	401.21	30.848	119.5	495.64	707.78	-157.08	605.79	1015.2	300.65	292.88	25.393	170.19	693.26	916.88	261.51	374.68	862.47	-179.62	557.05	730.76	-126.52	321.63	497.83	186.26	511.22	1139	317.06	311.9	274.72	101.66	346.84	37.827	93.758	244.33	94.537	51.148	272.47	1291.4	35.428	321.23	1425.3	167.75	205.27	75.52	129.54	549.66	1239.1	13.012	472.63	1030.1	-110.66	265.77	1016.4	5.4311	514.94	1414	16.348	148.68	42.625	77.803	494.26	1294.9	274.14	465.25	1112.2	253.16	544.77	524.68	-133.21	602.28	1669.5	-13.956	441.38	1459.6	-147.62	658.92	221.68	-71.691	604.8	1669.3	62.878	643.65	316.86	-67.252	603.89	27.307	-68.705	475.82	1458.1	175.14	615.91	315.36	-138.37	669.94	110.93	-35.775	412.89	796.04	216.07	629.05	405.78	-65.14	759.15	53.21	-142.09	646.31	83.349	-116.31	390.23	702.65	207.83	554.12	525.99	-0.97958	717.68	957.71	199.28	329.66	513.3	54.068	469.61	797.29	-163.28	838.85	94.144	-80.274	796.64	77.652	-61.119
613	3.065	527.01	618.14	-145.24	765.33	929.7	242.17	425.57	1639.2	-51.152	458.66	687.84	175.87	302.47	858.28	-215.62	359.64	1291.6	-229.91	300.19	1144.1	-236.78	365.4	613.12	194.08	292.31	992	-235.39	363.6	804.52	-226.25	393.84	1509.4	25.227	277.31	1022.9	82.477	274.44	1146.6	-163.15	281.23	187.4	92.809	431.59	1640.9	90.686	491.72	1032.9	178.58	343.5	362.6	112.4	286.53	273.13	167.05	401.19	30.828	119.51	499.84	706.48	-157.41	611.78	1015.2	299.82	292.84	25.373	170.12	699.97	917.71	260.05	378.31	861.4	-179.53	561.25	729.28	-126.67	324.26	497.68	186	516.38	1138.5	316.92	313.26	274.54	101.47	346.84	37.741	93.749	244.61	94.735	51.117	277.42	1290.6	34.905	326.3	1424.6	167.28	205.44	75.981	129.52	554.7	1238.3	12.607	477.75	1029.3	-111.08	270.88	1015.5	4.8665	520.02	1413.2	15.863	148.69	43.285	77.777	499.34	1294.3	273.75	470.49	1111.4	253	549.45	523.75	-132.8	607.33	1668.7	-14.486	446.52	1458.7	-148.13	666.93	221.91	-70.896	609.82	1668.5	62.352	650.63	316.96	-66.519	613.85	26.893	-68.098	480.9	1457.3	174.6	623.02	315.12	-137.67	679.01	111.25	-34.892	417.02	795.44	215.67	635.08	405.74	-64.475	769.29	54.378	-140.91	655.96	83.407	-115.52	393.92	702.21	207.5	558.15	525.14	-0.22589	724.04	959.14	198.06	332.56	513.13	53.734	474.08	796.05	-163.66	848.48	96.035	-78.793	806.27	79.31	-59.686
614	3.07	531.16	616.82	-145.42	771.79	931.17	240.83	430.64	1638.3	-51.714	462.45	687.06	175.75	306.26	857.46	-215.79	364.74	1290.7	-230.37	305.17	1143.2	-237.1	368.77	612.82	193.75	296.71	991.21	-235.63	367.15	803.4	-226.11	398.87	1508.6	24.666	282.43	1022.1	81.842	279.26	1145.9	-163.52	282.11	187.42	92.697	436.66	1640.1	90.127	496.64	1032.1	178.35	345.48	362.27	112.18	287.92	273.17	166.9	401.17	30.806	119.53	504.18	705.2	-157.79	617.67	1015.1	299.01	292.8	25.355	170.06	706.55	918.48	258.63	382.04	860.3	-179.47	565.58	727.9	-126.91	327.02	497.5	185.73	521.5	1137.9	316.77	314.69	274.36	101.27	346.85	37.666	93.745	244.91	94.964	51.095	282.38	1289.8	34.354	331.36	1423.8	166.78	205.62	76.475	129.51	559.74	1237.5	12.181	482.91	1028.5	-111.5	276.01	1014.7	4.2668	525.09	1412.4	15.351	148.71	43.998	77.761	504.4	1293.6	273.34	475.66	1110.6	252.83	554.29	522.85	-132.4	612.38	1667.9	-15.051	451.66	1457.8	-148.66	674.46	221.99	-70.04	614.84	1667.7	61.791	657.32	316.93	-65.753	622.94	26.476	-67.345	485.96	1456.5	174.04	629.81	314.79	-136.93	687.38	111.43	-33.926	421.21	794.85	215.26	641.01	405.58	-63.803	778.5	55.277	-139.71	664.79	83.364	-114.61	397.68	701.77	207.18	562.41	524.43	0.47351	730.27	960.47	196.87	335.6	512.94	53.382	478.61	794.83	-164.11	857.31	97.527	-77.383	815.09	80.635	-58.301
615	3.075	535.51	615.58	-145.54	778.11	932.54	239.53	435.71	1637.5	-52.311	466.33	686.29	175.65	310.18	856.62	-216.03	369.9	1289.7	-230.87	310.24	1142.3	-237.46	372.23	612.51	193.43	301.23	990.39	-235.94	370.83	802.26	-226.01	403.89	1507.8	24.07	287.57	1021.3	81.172	284.14	1145.2	-163.95	283.04	187.45	92.597	441.72	1639.3	89.533	501.59	1031.4	178.12	347.56	361.91	111.96	289.38	273.22	166.75	401.16	30.783	119.55	508.66	703.98	-158.21	623.46	1015	298.2	292.77	25.341	170.01	713	919.19	257.25	385.87	859.17	-179.44	570.05	726.64	-127.23	329.91	497.32	185.44	526.56	1137.3	316.6	316.19	274.16	101.06	346.87	37.608	93.748	245.23	95.225	51.085	287.36	1289	33.775	336.4	1423.1	166.24	205.84	77.005	129.51	564.79	1236.7	11.734	488.11	1027.7	-111.94	281.18	1013.8	3.6338	530.16	1411.6	14.812	148.74	44.767	77.757	509.43	1293	272.89	480.77	1109.9	252.63	559.27	521.98	-131.99	617.44	1667.1	-15.648	456.79	1456.9	-149.22	681.5	221.92	-69.127	619.87	1666.9	61.197	663.72	316.75	-64.954	631.16	26.047	-66.454	491.02	1455.7	173.46	636.29	314.36	-136.15	695.06	111.45	-32.882	425.46	794.26	214.84	646.84	405.29	-63.121	786.8	55.87	-138.48	672.82	83.197	-113.6	401.53	701.32	206.85	566.92	523.86	1.1158	736.38	961.72	195.71	338.79	512.73	53.013	483.22	793.64	-164.63	865.37	98.574	-76.041	823.1	81.583	-56.968
616	3.08	540.09	614.45	-145.62	784.29	933.81	238.28	440.78	1636.6	-52.943	470.3	685.53	175.54	314.24	855.75	-216.35	375.11	1288.7	-231.4	315.4	1141.4	-237.88	375.81	612.18	193.12	305.86	989.54	-236.3	374.64	801.08	-225.94	408.9	1507	23.439	292.75	1020.4	80.469	289.1	1144.4	-164.44	284.02	187.48	92.508	446.79	1638.5	88.906	506.56	1030.6	177.88	349.75	361.53	111.74	290.92	273.27	166.6	401.14	30.759	119.56	513.31	702.82	-158.65	629.15	1014.9	297.41	292.75	25.329	169.95	719.31	919.83	255.91	389.8	858.03	-179.45	574.69	725.52	-127.62	332.92	497.12	185.14	531.57	1136.7	316.41	317.77	273.96	100.86	346.9	37.571	93.758	245.56	95.521	51.091	292.37	1288.2	33.17	341.43	1422.3	165.67	206.07	77.57	129.53	569.85	1235.9	11.263	493.35	1027	-112.4	286.38	1012.9	2.9694	535.23	1410.8	14.247	148.77	45.596	77.77	514.44	1292.3	272.42	485.82	1109.1	252.41	564.39	521.12	-131.58	622.5	1666.3	-16.279	461.93	1456	-149.8	688.06	221.66	-68.162	624.9	1666.1	60.569	669.85	316.41	-64.125	638.51	25.606	-65.436	496.06	1455	172.85	642.47	313.81	-135.32	702.06	111.28	-31.768	429.78	793.67	214.43	652.55	404.88	-62.429	794.2	56.133	-137.23	680.06	82.894	-112.51	405.47	700.87	206.52	571.67	523.41	1.6993	742.36	962.88	194.59	342.12	512.5	52.629	487.92	792.5	-165.22	872.66	99.136	-74.758	830.33	82.117	-55.686
617	3.085	544.92	613.43	-145.63	790.34	934.97	237.07	445.86	1635.8	-53.61	474.36	684.77	175.44	318.42	854.85	-216.74	380.38	1287.7	-231.96	320.64	1140.4	-238.34	379.49	611.84	192.81	310.6	988.65	-236.72	378.59	799.89	-225.91	413.9	1506.2	22.773	297.96	1019.6	79.735	294.12	1143.6	-164.99	285.05	187.52	92.431	451.85	1637.7	88.243	511.56	1029.9	177.62	352.03	361.13	111.52	292.54	273.33	166.46	401.13	30.733	119.58	518.13	701.74	-159.11	634.74	1014.7	296.62	292.75	25.319	169.9	725.48	920.4	254.62	393.83	856.86	-179.48	579.49	724.54	-128.08	336.08	496.9	184.84	536.52	1136.1	316.19	319.42	273.75	100.65	346.94	37.555	93.777	245.92	95.853	51.115	297.4	1287.3	32.538	346.45	1421.6	165.05	206.34	78.174	129.57	574.92	1235.1	10.768	498.63	1026.2	-112.88	291.61	1012	2.2755	540.29	1410	13.655	148.82	46.489	77.805	519.41	1291.6	271.93	490.81	1108.3	252.16	569.65	520.28	-131.17	627.56	1665.5	-16.942	467.06	1455.1	-150.42	694.17	221.23	-67.153	629.93	1665.3	59.908	675.7	315.93	-63.269	645.01	25.155	-64.318	501.08	1454.2	172.21	648.35	313.15	-134.45	708.4	110.93	-30.596	434.16	793.09	214.01	658.17	404.34	-61.725	800.74	56.049	-135.97	686.54	82.448	-111.34	409.5	700.41	206.19	576.67	523.05	2.2238	748.22	963.94	193.5	345.59	512.25	52.232	492.73	791.42	-165.88	879.23	99.18	-73.526	836.8	82.212	-54.454
618	3.09	549.98	612.53	-145.57	796.24	936.03	235.9	450.93	1635	-54.312	478.52	684.02	175.35	322.74	853.93	-217.21	385.7	1286.7	-232.56	325.96	1139.4	-238.85	383.28	611.48	192.5	315.46	987.74	-237.2	382.67	798.67	-225.92	418.9	1505.4	22.073	303.21	1018.8	78.974	299.2	1142.7	-165.59	286.13	187.57	92.364	456.92	1636.9	87.544	516.59	1029.1	177.35	354.43	360.7	111.31	294.25	273.4	166.31	401.12	30.706	119.6	523.12	700.75	-159.58	640.22	1014.6	295.84	292.75	25.311	169.86	731.51	920.91	253.38	397.96	855.68	-179.54	584.48	723.72	-128.61	339.37	496.67	184.53	541.41	1135.5	315.93	321.14	273.53	100.45	346.98	37.563	93.803	246.3	96.223	51.157	302.44	1286.5	31.88	351.45	1420.8	164.4	206.63	78.819	129.63	580.01	1234.3	10.247	503.95	1025.4	-113.38	296.87	1011.1	1.5541	545.34	1409.2	13.037	148.87	47.45	77.863	524.35	1290.9	271.41	495.75	1107.5	251.87	575.04	519.45	-130.77	632.63	1664.7	-17.636	472.18	1454.2	-151.06	699.85	220.63	-66.109	634.96	1664.5	59.215	681.3	315.29	-62.392	650.67	24.704	-63.132	506.09	1453.5	171.55	653.95	312.38	-133.55	714.1	110.4	-29.379	438.62	792.51	213.6	663.69	403.68	-61.012	806.44	55.613	-134.7	692.3	81.864	-110.12	413.62	699.94	205.86	581.92	522.77	2.6892	753.95	964.91	192.45	349.21	511.98	51.825	497.66	790.4	-166.6	885.11	98.684	-72.336	842.54	81.851	-53.271
